<svg width="312" height="305" viewBox="0 0 312 305" fill="none" xmlns="http://www.w3.org/2000/svg">
<ellipse cx="227.5" cy="224.327" rx="84.5" ry="80.5" fill="#FF805E"/>
<path d="M164.258 146.827H70.4903C66.412 146.827 62.7423 149.304 61.2165 153.086L5.54361 291.086C2.89206 297.658 7.73013 304.827 14.8174 304.827H109.348C113.444 304.827 117.125 302.329 118.64 298.524L173.55 160.524C176.163 153.958 171.325 146.827 164.258 146.827Z" fill="#B0C929"/>
<path d="M279.258 0.826904H185.49C181.412 0.826904 177.742 3.30351 176.217 7.08562L120.544 145.086C117.892 151.658 122.73 158.827 129.817 158.827H224.348C228.444 158.827 232.125 156.329 233.64 152.524L288.55 14.524C291.163 7.95778 286.325 0.826904 279.258 0.826904Z" fill="#FBBC05"/>
</svg>
