<svg width="12" height="12" viewBox="0 0 12 12" fill="none" xmlns="http://www.w3.org/2000/svg">
<path d="M6.06934 11.043C4.97743 11.043 3.91005 10.7192 3.00214 10.1126C2.09424 9.50598 1.3866 8.64378 0.968699 7.635C0.550798 6.62623 0.441406 5.51619 0.654354 4.44525C0.867302 3.37431 1.39303 2.39056 2.16505 1.6184C2.93708 0.846231 3.92073 0.320327 4.99164 0.107185C6.06254 -0.105956 7.1726 0.0032351 8.18144 0.420953C9.19029 0.838671 10.0526 1.54616 10.6594 2.45395C11.2662 3.36174 11.5901 4.42907 11.5903 5.52098C11.589 6.98493 11.007 8.38855 9.97188 9.42381C8.9368 10.4591 7.53329 11.0414 6.06934 11.043ZM6.06934 0.630979C5.10219 0.630979 4.15676 0.917773 3.3526 1.45509C2.54845 1.99241 1.92168 2.75613 1.55157 3.64966C1.18146 4.54319 1.08462 5.5264 1.2733 6.47497C1.46198 7.42354 1.92771 8.29485 2.61159 8.97873C3.29547 9.66261 4.16678 10.1283 5.11535 10.317C6.06392 10.5057 7.04713 10.4089 7.94066 10.0387C8.8342 9.66864 9.59791 9.04187 10.1352 8.23772C10.6725 7.43356 10.9593 6.48813 10.9593 5.52098C10.9567 4.22488 10.4407 2.98263 9.52418 2.06615C8.60769 1.14966 7.36544 0.633621 6.06934 0.630979Z" fill="black"/>
<path d="M7.76339 7.5301C7.72199 7.53022 7.68098 7.52216 7.64271 7.50637C7.60444 7.49058 7.56966 7.46738 7.54039 7.4381L5.84639 5.7451C5.81716 5.7158 5.79399 5.68102 5.7782 5.64276C5.76242 5.60449 5.75433 5.56349 5.75439 5.5221V1.9391C5.75893 1.8585 5.79415 1.78268 5.85282 1.72723C5.91149 1.67177 5.98916 1.64087 6.0699 1.64087C6.15063 1.64087 6.2283 1.67177 6.28697 1.72723C6.34564 1.78268 6.38085 1.8585 6.38539 1.9391V5.3911L7.98539 6.9911C8.02941 7.03529 8.05936 7.09152 8.07148 7.1527C8.0836 7.21388 8.07735 7.27728 8.0535 7.33491C8.02966 7.39254 7.98929 7.44183 7.93749 7.47656C7.88569 7.5113 7.82476 7.52992 7.76239 7.5301H7.76339Z" fill="black"/>
</svg>
